<?xml version="1.0" encoding="utf-8"?>
<!-- Generator: Adobe Illustrator 16.0.0, SVG Export Plug-In . SVG Version: 6.00 Build 0)  -->
<!DOCTYPE svg PUBLIC "-//W3C//DTD SVG 1.1//EN" "http://www.w3.org/Graphics/SVG/1.1/DTD/svg11.dtd">
<svg version="1.1" id="Layer_1" xmlns="http://www.w3.org/2000/svg" xmlns:xlink="http://www.w3.org/1999/xlink" x="0px" y="0px"
	 width="1013.5px" height="309.486px" viewBox="0 0 1013.5 309.486" enable-background="new 0 0 1013.5 309.486"
	 xml:space="preserve">
<path fill="none" d="M541.051,131.876l9.993,3.922l9.992,3.921l0.315-6.295c0.21-3.406-0.106-6.501-0.526-7.018
	c-0.421-0.413-5.049-2.373-10.203-4.437c-5.259-2.064-9.572-3.716-9.782-3.716c-0.21,0-0.316,3.096-0.105,6.812L541.051,131.876z"/>
<path fill="none" d="M584.07,147.046c11.57,3.406,11.465,3.509,10.939-5.16l-0.315-5.47l-9.992-2.89
	c-5.47-1.548-10.308-2.889-10.729-2.889c-0.526,0-0.841,2.992-0.841,6.708c0,3.715,0.209,6.708,0.315,6.708
	C573.657,144.054,578.495,145.395,584.07,147.046z"/>
<path fill="none" d="M529.376,126.509c0.315,0,0.632-2.993,0.632-6.708v-6.708l-8.415-4.127l-8.415-4.128v6.604v6.708l7.783,4.128
	C525.168,124.652,528.956,126.509,529.376,126.509z"/>
<path fill="none" d="M486.357,102.051l8.729,5.47l8.625,5.572v-7.017l-0.105-6.915l-7.048-4.335
	c-11.149-6.811-10.938-6.811-10.518,0.723L486.357,102.051z"/>
<polygon fill="none" points="477.417,96.581 477.417,89.873 477.417,83.165 467.95,78.521 458.485,73.876 458.485,80.584 
	458.485,87.292 467.95,91.937 "/>
<path fill="none" d="M755.305,159.431l9.257-1.239v-6.502v-6.604l-3.893,0.103c-2.21,0-4.417,0.206-5.048,0.413
	c-0.526,0.207-3.788,0.619-7.048,1.032l-6.101,0.619v6.708C742.473,161.598,741.421,161.184,755.305,159.431z"/>
<path fill="none" d="M728.064,162.011l3.892-0.723v-6.502v-6.604l-4.944,0.207c-2.84,0.103-7.994,0.309-11.57,0.516l-6.626,0.413
	v6.605v6.708h7.679C720.595,162.63,725.854,162.321,728.064,162.011z"/>
<path fill="none" d="M696.195,162.63v-6.708v-6.708h-7.574c-4.208,0-9.467-0.309-11.57-0.619l-3.996-0.722v7.43v7.328h11.57H696.195
	z"/>
<path fill="none" d="M616.045,154.89c11.255,2.271,10.729,2.58,10.729-5.16c0-3.715-0.211-6.708-0.422-6.708
	c-0.21,0-5.048-0.929-10.623-2.064c-5.575-1.136-10.413-2.064-10.624-2.064c-0.21,0-0.42,2.993-0.42,6.605
	C604.686,153.033,603.844,152.413,616.045,154.89z"/>
<path fill="none" d="M639.921,159.018l5.785,0.619c3.155,0.414,8.309,0.929,11.36,1.239l5.574,0.62l-0.316-6.915l-0.314-6.915
	l-6.838-0.723c-3.787-0.413-8.835-1.032-11.359-1.341l-4.522-0.62l0.314,7.018L639.921,159.018z"/>
<path fill="none" d="M286.933,30.532c0.737,0,1.158-2.374,1.158-6.708c0-3.715-0.316-6.708-0.736-6.708
	c-0.526,0-3.892-0.516-7.678-1.032s-8.099-1.238-9.677-1.548l-2.944-0.516v7.018v7.018l9.36,1.239
	C281.463,30.016,286.197,30.532,286.933,30.532z"/>
<path fill="none" d="M276.415,151.381c-3.786-0.619-7.467-1.135-8.098-1.135c-0.842,0-1.262,2.271-1.262,6.708
	c0,7.431-0.526,6.915,9.466,8.257c2.629,0.31,6.311,0.825,8.204,1.134l3.366,0.62v-6.811
	C288.091,152.517,289.143,153.342,276.415,151.381z"/>
<path fill="none" d="M321.749,159.843l-8.625-1.754c-4.838-1.032-9.781-2.064-11.043-2.374c-2.314-0.516-2.419-0.206-2.419,6.296
	c0,6.192,0.209,6.811,2.419,7.326c1.262,0.207,5.574,1.136,9.466,2.064c10.624,2.271,10.203,2.478,10.203-5.058V159.843z"/>
<path fill="none" d="M337.316,163.663c-1.684-0.517-2.945-0.723-3.051-0.414c0,0.207,0,3.303-0.104,6.813v6.501l9.782,2.787
	c5.47,1.548,10.203,2.889,10.729,2.889c0.42,0,0.736-2.993,0.736-6.708v-6.605l-7.573-2.166
	C343.626,165.52,338.893,164.178,337.316,163.663z"/>
<path fill="none" d="M827.459,144.57c0.841-0.31,1.262-2.787,1.262-7.224c0-3.716-0.315-6.605-0.736-6.605
	c-0.525,0.103-5.259,1.341-10.518,2.786l-9.782,2.58v6.915v7.017l9.256-2.477C821.99,146.221,826.723,144.879,827.459,144.57z"/>
<path fill="none" d="M385.383,178.936l-9.992-3.508c-5.47-1.963-10.098-3.511-10.309-3.511c-0.209,0-0.209,3.097,0,6.812
	l0.316,6.813l9.992,3.508c5.469,1.961,10.097,3.509,10.307,3.509s0.21-3.096,0-6.811L385.383,178.936z"/>
<path fill="none" d="M352.566,46.012l2.84,0.929v-7.018v-7.018l-8.625-2.373c-4.839-1.239-9.572-2.58-10.518-2.787
	c-1.684-0.516-1.894,0.309-1.894,6.191v6.812l7.678,2.167C346.15,44.155,350.884,45.496,352.566,46.012z"/>
<path fill="none" d="M385.173,56.332c0.42,0,0.736-2.992,0.736-6.604v-6.605l-9.783-3.199c-5.259-1.754-9.992-3.199-10.518-3.199
	c-0.419,0-0.735,2.889-0.735,6.398v6.501l9.782,3.406C379.913,54.784,384.647,56.332,385.173,56.332z"/>
<path fill="none" d="M398.846,61.183c1.367,1.135,17.565,7.534,18.933,7.534c0.42,0,0.736-2.89,0.736-6.502V55.61l-9.783-3.715
	c-5.364-2.064-10.097-3.818-10.518-3.818C396.847,48.076,397.373,60.151,398.846,61.183z"/>
<path fill="none" d="M320.487,37.549c1.052,0.31,1.262-1.135,1.052-6.605l-0.316-7.121l-7.889-1.651
	c-4.313-0.929-9.256-1.96-10.834-2.373l-2.839-0.62v7.018v7.018l9.781,1.858C314.701,36.104,319.75,37.24,320.487,37.549z"/>
<path fill="none" d="M427.982,73.464l9.361,4.231c5.258,2.27,9.676,3.921,9.992,3.612s0.632-3.199,0.632-6.502V68.82l-7.889-3.612
	c-12.832-5.779-12.096-5.883-12.096,1.651V73.464z"/>
<path fill="none" d="M240.549,147.769l-7.152-0.516v7.121v7.225h5.154c2.735,0,7.994,0.31,11.569,0.618l6.417,0.724v-6.812v-6.812
	l-4.417-0.516C249.594,148.491,244.441,148.079,240.549,147.769z"/>
<path fill="none" d="M65.948,47.044c0.63,0,13.147-3.199,18.406-4.747c1.473-0.413,1.788-1.754,1.788-7.224
	c0-7.327,0.105-7.224-7.362-5.057c-2.629,0.722-6.732,1.96-9.151,2.58l-4.523,1.135v6.605
	C65.107,44.051,65.423,47.044,65.948,47.044z"/>
<path fill="none" d="M32.711,57.158c0.735-0.31,5.469-1.754,10.623-3.302l9.151-2.787v-6.605c0-4.747-0.421-6.708-1.263-6.604
	c-0.736,0.104-5.363,1.444-10.307,2.993l-8.94,2.889l-0.315,6.915C31.449,56.023,31.659,57.468,32.711,57.158z"/>
<path fill="none" d="M85.932,163.764c-0.21,0.104-4.837,1.344-10.307,2.892l-9.992,2.785l-0.315,7.019
	c-0.211,5.47,0,6.914,1.052,6.604c0.735-0.31,5.469-1.548,10.623-2.89l9.15-2.373v-7.121
	C86.143,166.861,86.037,163.663,85.932,163.764z"/>
<path fill="none" d="M41.756,176.356l-10.307,3.2v6.913v6.813l10.519-3.097l10.518-3.2v-7.017c0-3.819-0.105-6.915-0.21-6.915
	C52.064,173.157,47.331,174.601,41.756,176.356z"/>
<path fill="none" d="M109.177,36.621l9.572-2.167v-6.604c0-6.708-0.632-7.534-4.733-6.089c-0.525,0.207-4.733,1.135-9.15,2.064
	l-8.204,1.754v6.605C96.661,39.923,95.925,39.613,109.177,36.621z"/>
<polygon fill="none" points="222.879,25.372 222.879,18.147 222.879,10.923 211.308,10.923 199.739,10.923 199.739,18.147 
	199.739,25.372 211.308,25.372 "/>
<path fill="none" d="M118.539,156.541c-0.21,0.103-3.366,0.722-7.048,1.548c-3.681,0.827-8.519,1.961-10.729,2.477l-4.101,1.135
	v6.812c0,6.502,0.105,6.709,2.419,6.089c1.263-0.31,6.206-1.341,11.043-2.373l8.625-1.755v-7.018
	C118.749,159.637,118.644,156.438,118.539,156.541z"/>
<path fill="none" d="M252.119,26.404h4.417v-6.604v-6.502l-7.047-0.619c-3.997-0.413-9.151-0.722-11.57-0.722h-4.523v6.604v6.502
	l7.152,0.619C244.441,26.094,249.594,26.404,252.119,26.404z"/>
<path fill="none" d="M152.933,28.984l0.315-7.018c0.211-5.16,0-6.915-1.052-6.812c-0.736,0.103-5.785,0.825-11.044,1.651
	l-9.782,1.548v6.915v6.915l10.834-1.548L152.933,28.984z"/>
<path fill="none" d="M183.751,25.784l3.366-0.516v-6.605v-6.708l-3.366,0.207c-4.313,0.207-9.467,0.619-15.251,1.445l-4.523,0.516
	v6.708v6.812l8.204-0.723C176.599,26.61,181.858,26.094,183.751,25.784z"/>
<path fill="none" d="M957.778,81.824c0.422-0.207,4.734-2.684,9.572-5.367l8.625-4.851v-6.605c0-3.612-0.105-6.604-0.315-6.604
	s-4.313,2.271-9.15,4.954l-8.941,5.057l-0.315,6.914C957.042,79.14,957.358,82.132,957.778,81.824z"/>
<path fill="none" d="M842.71,139.822c0.631,0,5.259-1.548,10.204-3.406l8.94-3.302l0.314-6.915c0.211-3.818-0.106-6.915-0.525-6.811
	c-0.421,0.103-5.26,1.754-10.519,3.818l-9.781,3.612v6.502C841.344,137.965,841.764,139.926,842.71,139.822z"/>
<path fill="none" d="M134.842,153.857l-3.471,0.62v6.605c0,7.533-0.421,7.223,9.045,5.676c3.367-0.619,7.784-1.342,9.677-1.65
	l3.366-0.517v-6.605C153.459,150.039,154.405,150.246,134.842,153.857z"/>
<path fill="none" d="M930.222,99.677c0.208,0,4.207-2.374,8.939-5.264l8.415-5.263v-6.605c0-3.612-0.316-6.605-0.736-6.501
	c-0.526,0-4.523,2.477-8.94,5.366l-8.204,5.264v6.501C929.696,96.788,929.905,99.677,930.222,99.677z"/>
<path fill="none" d="M884.258,123.826l7.572-3.406v-6.192c0-7.637-0.211-7.637-11.779-2.374l-8.206,3.715v6.605
	C871.845,129.812,871.11,129.709,884.258,123.826z"/>
<path fill="none" d="M921.281,105.353v-6.501c0-3.509-0.317-6.399-0.737-6.399c-0.525,0-4.628,2.064-9.255,4.541l-8.415,4.438
	l-0.316,7.018l-0.315,6.915l9.467-5.058L921.281,105.353z"/>
<path fill="none" d="M1004.9,60.667l0.315-6.812c0.212-3.715-0.106-6.812-0.526-6.708c-0.421,0-4.839,1.548-9.78,3.302l-8.94,3.302
	l-0.317,6.915l-0.315,6.914l9.782-3.406L1004.9,60.667z"/>
<polygon fill="none" points="199.739,147.15 199.739,153.857 199.739,160.566 211.308,160.566 222.879,160.566 222.879,153.857 
	222.879,147.15 211.308,147.15 "/>
<path fill="none" d="M170.288,149.11l-5.785,0.62l-0.315,7.017l-0.316,7.122l2.945-0.62c1.578-0.309,6.837-0.825,11.675-1.237
	l8.625-0.62v-6.604v-6.604l-5.47,0.207C178.596,148.491,173.444,148.801,170.288,149.11z"/>
<path fill="none" d="M219.302,35.073c-17.985-0.206-37.443,0.207-43.229,0.722C135.789,39.407,92.98,48.283,42.808,63.557
	c-28.083,8.462-28.609,8.668-31.344,11.352c-2.104,2.063-2.104,3.096-2.104,50.466c0,42.415,0.211,48.505,1.578,49.64
	c1.367,1.135,5.048,0.31,21.877-4.953c79.412-24.872,131.476-33.335,194.9-31.787c20.616,0.413,27.662,0.31,28.609-0.619
	c0.947-0.929,1.263-13.52,1.263-50.053V38.788l-2.84-1.754C252.329,35.485,248.332,35.176,219.302,35.073z"/>
<path fill="none" d="M398.951,184.302c-1.263,0-1.473,1.342-1.263,6.399l0.317,6.397l9.886,3.923
	c5.469,2.166,10.098,3.921,10.308,3.921c0.21,0,0.316-2.993,0.316-6.605v-6.604l-9.046-3.716
	C404.526,185.954,399.687,184.302,398.951,184.302z"/>
<path fill="none" d="M1316.49,371.324c0.841-0.311,5.363-1.342,10.096-2.375l8.521-1.754v-7.121c0-3.818-0.106-7.018-0.21-6.914
	c-0.211,0-4.523,1.032-9.782,2.27l-9.467,2.271l-0.315,7.121C1315.121,370.602,1315.331,371.84,1316.49,371.324z"/>
<path fill="none" d="M1469.002,360.9l4.942,0.619v-6.707c0-5.574-0.315-6.916-1.788-7.328c-1.052-0.207-5.995-0.826-11.043-1.238
	l-9.257-0.62v6.708v6.813l6.101,0.619C1461.218,360.074,1466.161,360.59,1469.002,360.9z"/>
<path fill="none" d="M1438.499,358.526c0.104-0.103,0-3.198-0.106-6.914l-0.42-6.812h-10.939h-10.938v6.605v6.707l11.149,0.311
	C1433.344,358.63,1438.393,358.63,1438.499,358.526z"/>
<path fill="none" d="M1484.99,362.654l11.044,1.858c6.1,1.032,11.148,1.857,11.358,1.96c0.104,0,0.211-2.992,0.211-6.604
	c0-7.535,0.632-7.02-10.518-8.876c-3.787-0.62-8.204-1.341-9.783-1.651l-2.944-0.619l0.315,7.018L1484.99,362.654z"/>
<path fill="none" d="M1382.438,360.178l10.308-0.516c5.573-0.31,10.833-0.723,11.57-1.032c0.945-0.31,1.261-2.271,1.051-6.812
	c-0.315-7.326,0.42-6.914-11.359-6.295c-11.78,0.619-11.569,0.412-11.569,8.049V360.178z"/>
<path fill="none" d="M1323.852,491.657l-8.73,2.063v7.018v6.915l6.102-1.548c3.26-0.826,7.782-1.961,9.991-2.478l3.892-1.031v-6.605
	C1335.106,488.354,1335.948,488.665,1323.852,491.657z"/>
<path fill="none" d="M1348.043,364.409c1.156,0,10.833-1.342,18.406-2.58l3.366-0.619v-6.604c0-7.121-0.316-7.432-6.311-6.09
	c-0.843,0.104-5.051,0.826-9.151,1.445l-7.678,1.238v6.605C1346.676,362.449,1347.096,364.409,1348.043,364.409z"/>
<path fill="none" d="M975.239,194.623c-0.525,0-4.628,2.167-9.256,4.953l-8.415,4.851l-0.315,6.399c-0.21,3.612,0,6.5,0.315,6.5
	c0.316,0,4.524-2.166,9.468-4.746l8.939-4.749v-6.604C975.975,197.616,975.659,194.623,975.239,194.623z"/>
<path fill="none" d="M1519.699,369.053l9.992,2.787c5.469,1.548,10.308,2.89,10.833,2.89c0.42,0,0.735-2.993,0.735-6.708v-6.605
	l-3.891-1.031c-2.209-0.619-6.312-1.755-9.256-2.684c-8.94-2.58-9.047-2.477-8.731,4.851L1519.699,369.053z"/>
<path fill="none" d="M1006.268,72.019c-1.894-1.858-3.577-1.548-13.78,2.373c-13.252,5.057-25.873,11.662-40.81,21.363
	c-54.904,35.398-95.82,52.633-160.086,67.288c-1.578,0.412-3.786,1.548-4.943,2.683c-1.999,1.962-2.103,3.611-2.103,50.569v48.504
	l2.419,1.135c4.732,2.17,48.383-9.803,78.359-21.361c27.137-10.527,49.855-22.293,80.147-41.694
	c21.247-13.52,31.87-19.299,46.175-24.665c6.101-2.373,12.096-1.264,13.462-2.502l2.421-2.167v-52.195
	C1007.53,85.332,1007.213,72.948,1006.268,72.019z"/>
<path fill="none" d="M1568.924,385.669c1.578,0.516,1.788-0.103,1.788-6.089v-6.708l-8.837-3.716
	c-4.943-2.063-9.36-3.715-9.991-3.715c-0.735,0-1.157,2.477-1.157,6.398v6.502l8.205,3.303
	C1563.349,383.502,1567.872,385.256,1568.924,385.669z"/>
<path fill="none" d="M431.978,197.41l-3.997-1.652v6.708v6.709l9.045,4.025c4.943,2.27,9.466,4.127,9.992,4.127
	s0.947-2.787,0.947-6.191v-6.192l-5.996-2.993C438.605,200.298,434.082,198.235,431.978,197.41z"/>
<path fill="none" d="M1570.185,508.582l-9.36-3.922c-5.154-2.27-9.571-4.025-9.781-4.025c-0.211,0-0.316,3.097-0.105,6.812
	l0.315,6.813l9.466,4.024c5.259,2.168,9.571,4.024,9.783,4.024c0.21,0,0.21-3.096,0-6.811L1570.185,508.582z"/>
<path fill="none" d="M1550.306,387.63c-21.457-7.844-53.011-14.448-82.672-17.44c-15.672-1.549-50.487-2.684-63.635-2.064
	c-32.5,1.548-73.207,7.533-77.518,11.455c-1.789,1.548-1.894,4.541-1.894,50.981c0,47.886,0.104,49.331,1.997,49.95
	c1.157,0.309,8.1-0.517,15.567-1.962c28.294-5.365,40.179-6.295,80.254-6.295c29.977,0,40.284,0.413,52.064,1.857
	c34.395,4.438,62.583,11.353,87.09,21.362c6.626,2.684,8.413,3.097,9.677,2.064c1.366-1.134,1.577-8.153,1.577-49.021
	c0-46.854,0-47.782-2.209-50.466C1567.976,394.75,1563.875,392.687,1550.306,387.63z"/>
<path fill="none" d="M1540.735,497.126l-7.888-2.269c-4.313-1.137-9.257-2.479-10.835-2.892l-2.945-0.721l0.315,6.913l0.317,6.915
	l10.518,2.89c5.785,1.651,10.622,2.89,10.833,2.992c0.21,0,0.21-3.096,0-6.914L1540.735,497.126z"/>
<path fill="none" d="M1354.565,485.568l-7.363,1.135l-0.315,7.122c-0.316,6.913-0.21,7.017,2.104,6.501
	c1.367-0.31,6.521-1.136,11.675-1.858l9.151-1.237v-6.605v-6.502l-3.893,0.103C1363.714,484.33,1358.665,484.846,1354.565,485.568z"
	/>
<path fill="none" d="M1507.076,488.767l-8.414-1.754c-4.628-0.928-9.676-1.755-11.254-1.755c-2.945-0.104-2.945,0-2.945,6.503v6.604
	l6.626,1.135c3.576,0.619,8.835,1.445,11.569,1.754l5.049,0.724l-0.315-6.604L1507.076,488.767z"/>
<path fill="none" d="M1388.538,481.75l-6.101,0.412v6.915v6.914l9.676-0.722c5.364-0.311,10.624-0.724,11.676-0.724
	c1.472-0.103,1.787-1.135,1.787-6.812v-6.707l-5.469,0.206C1397.058,481.337,1391.799,481.543,1388.538,481.75z"/>
<polygon fill="none" points="1416.095,481.027 1416.095,487.734 1416.095,494.443 1427.14,494.443 1438.184,494.443 
	1438.184,487.734 1438.184,481.027 1427.14,481.027 "/>
<path fill="none" d="M1462.585,482.473l-10.729-0.723v6.708v6.812l10.834,0.824l10.729,0.93l0.315-6.605
	c0.21-3.612,0.105-6.708-0.105-6.913C1473.419,483.298,1468.475,482.781,1462.585,482.473z"/>
<path fill="none" d="M1004.163,183.374c-0.736,0-5.259,1.444-9.992,3.199l-8.729,3.199v6.914v6.916l9.992-3.612l9.993-3.716v-6.502
	C1005.427,185.231,1005.004,183.27,1004.163,183.374z"/>
<path fill="none" d="M541.261,254.479c-1.367,0-0.841,12.076,0.631,13.107c1.368,1.135,17.565,7.533,18.933,7.533
	c0.42,0,0.736-2.889,0.736-6.5v-6.605l-9.783-3.715C546.415,256.234,541.682,254.479,541.261,254.479z"/>
<path fill="none" d="M626.248,278.834l-8.94-1.754c-13.464-2.684-12.622-2.992-12.622,4.748c0,3.715,0.209,6.709,0.42,6.709
	c0.211,0,5.049,0.928,10.624,2.063c5.575,1.135,10.413,2.064,10.727,2.064c0.211,0,0.318-3.096,0.106-6.914L626.248,278.834z"/>
<path fill="none" d="M594.168,272.539c-0.526-0.309-5.47-1.961-11.044-3.611l-10.098-2.889l0.315,6.811l0.316,6.811l8.94,2.787
	c12.938,4.025,12.622,4.127,12.622-3.096C595.219,275.945,594.799,272.85,594.168,272.539z"/>
<path fill="none" d="M710.182,285.131c-0.946,0.309-1.367,2.787-1.367,7.223v6.813l8.099-0.723c4.418-0.311,9.572-0.619,11.57-0.619
	h3.472v-6.707v-6.709l-10.203,0.104C716.073,284.512,710.813,284.82,710.182,285.131z"/>
<path fill="none" d="M644.444,281.621l-5.049-0.617v6.707c0,7.842-0.63,7.43,14.727,8.668l8.414,0.723v-6.709v-6.707l-6.521-0.723
	C652.332,282.551,647.178,282.035,644.444,281.621z"/>
<path fill="none" d="M679.784,284.408h-6.73v6.605v6.5l5.573,0.725c2.946,0.309,8.205,0.619,11.57,0.619h5.997v-6.605v-6.502
	l-4.84-0.723C688.62,284.717,683.466,284.408,679.784,284.408z"/>
<path fill="none" d="M486.673,224.758c-0.421-0.207-0.841,2.58-0.841,6.295v6.605l8.519,5.367c4.628,2.889,8.625,5.262,8.94,5.262
	c0.211,0,0.421-2.889,0.421-6.502v-6.605l-8.099-5.055C491.195,227.338,487.093,224.859,486.673,224.758z"/>
<path fill="none" d="M459.01,210.103c-0.316,0-0.526,2.889-0.526,6.5v6.502l8.94,4.334c4.943,2.375,9.15,4.336,9.466,4.336
	c0.315,0,0.526-2.891,0.526-6.502v-6.502l-8.94-4.334C463.532,212.064,459.325,210.103,459.01,210.103z"/>
<path fill="none" d="M440.077,87.809c-50.698-21.775-95.4-36.327-135.683-44.377c-15.462-2.992-25.875-4.231-27.032-2.992
	c-0.526,0.413-0.841,22.911-0.841,50.053v49.227l2.419,1.445c1.262,0.826,11.57,3.199,22.825,5.366
	c35.129,6.812,67.421,16.41,106.442,31.683c41.863,16.409,61.847,25.904,82.358,39.113c6.1,4.025,11.779,7.225,12.621,7.225
	c1.367,0,1.578-6.605,1.578-49.846v-49.846l-2.84-2.684C492.773,113.918,464.9,98.335,440.077,87.809z"/>
<path fill="none" d="M513.704,241.064c-0.316,0-0.526,2.992-0.526,6.605v6.604l8.415,4.23l8.415,4.334v-7.018v-7.119l-7.889-3.818
	C517.701,242.818,513.914,241.064,513.704,241.064z"/>
<path fill="none" d="M946.84,212.167c-0.422,0-4.523,2.372-8.94,5.263l-8.204,5.16v6.707c0,7.639-0.947,7.639,10.518,0.207
	l6.837-4.438l0.316-6.502C947.576,215.057,947.26,212.167,946.84,212.167z"/>
<path fill="none" d="M861.644,255.613c-0.526,0-5.048,1.549-10.308,3.406l-9.467,3.406l-0.316,7.018
	c-0.315,6.4-0.104,6.916,1.577,6.193c1.052-0.414,4.944-1.756,8.731-3.098c3.785-1.34,7.678-2.682,8.73-3.096
	c1.471-0.619,1.788-2.064,1.788-7.326C862.38,258.504,862.063,255.512,861.644,255.613z"/>
<path fill="none" d="M821.36,268.412c-2.63,0.723-6.732,1.961-9.151,2.58l-4.523,1.135v6.605c0,3.715,0.316,6.707,0.842,6.707
	c0.63,0,13.147-3.199,18.406-4.746c1.473-0.414,1.788-1.754,1.788-7.225C828.721,266.141,828.826,266.244,821.36,268.412z"/>
<path fill="none" d="M891.094,243.23c-0.525,0-4.839,1.754-9.782,3.922l-8.939,3.922l-0.317,7.018c-0.21,5.367,0,6.811,1.053,6.398
	c0.736-0.311,5.259-2.271,10.098-4.334l8.625-3.922v-6.502C891.83,246.121,891.514,243.127,891.094,243.23z"/>
<path fill="none" d="M920.755,227.75l-9.15,4.85l-9.257,4.852v6.398c0,3.613,0.315,6.502,0.631,6.502
	c1.578,0,17.565-8.875,17.985-9.906c0.211-0.621,0.317-3.717,0.106-6.916L920.755,227.75z"/>
<path fill="none" d="M746.68,169.854c-14.62,2.063-67.001,2.478-86.249,0.619c-44.175-4.129-83.092-13.829-119.906-29.722
	c-15.357-6.708-17.987-7.534-19.249-6.398c-0.42,0.413-0.736,22.498-0.736,49.124v48.298l2.945,3.096
	c4.943,5.367,37.654,18.576,65.106,26.213c39.969,11.248,89.089,16.514,131.793,14.035c27.241-1.547,41.547-3.404,44.177-5.676
	c1.997-1.754,2.104-3.51,2.104-49.949c0-26.419-0.422-48.71-0.947-49.538C764.666,168.305,758.25,168.305,746.68,169.854z"/>
<path fill="none" d="M784.019,277.08l-8.413,1.652l-0.316,5.572c-0.42,7.74-0.105,8.359,4.732,7.328
	c2.209-0.516,6.732-1.342,10.099-2.064l5.995-1.135v-6.709C796.115,274.088,796.956,274.396,784.019,277.08z"/>
<path fill="none" d="M763.299,280.383c-1.685,0.207-20.194,2.787-20.512,2.891c-0.21,0.104-0.314,3.096-0.314,6.811v6.709
	l6.101-0.619c3.26-0.414,8.1-1.033,10.729-1.342l4.732-0.619l0.315-7.02C764.562,282.035,764.351,280.279,763.299,280.383z"/>
<path fill="none" d="M786.649,154.581l8.94-1.858l0.316-6.914c0.21-3.819-0.106-6.812-0.526-6.812
	c-1.789,0.31-15.672,2.993-17.881,3.509s-2.418,1.135-2.418,7.224C775.08,157.367,774.237,157.057,786.649,154.581z"/>
<path d="M1800.398,336.254c-27.348-12.693-61.847-21.26-102.867-25.49c-16.724-1.651-70.051-1.754-86.248,0
	c-24.264,2.598-46.938,6.789-66.604,12.262v171.025c18.991-5.336,40.652-9.511,62.924-11.973c16.933-1.857,76.676-1.857,93.61,0
	c39.443,4.334,74.994,13.52,99.605,25.595c5.049,2.477,9.677,4.541,10.309,4.541c0.736,0,1.052-27.968,1.052-85.245v-85.142
	L1800.398,336.254z M1782.727,346.266c0-3.922,0.422-6.399,1.157-6.399c0.631,0,5.048,1.651,9.991,3.716l8.837,3.715v6.709
	c0,5.985-0.21,6.604-1.788,6.088c-1.052-0.412-5.575-2.167-9.992-4.024l-8.205-3.303V346.266z M1760.114,332.126
	c2.944,0.929,7.047,2.064,9.256,2.684l3.891,1.032v6.604c0,3.716-0.315,6.708-0.735,6.708c-0.525,0-5.364-1.342-10.833-2.889
	l-9.992-2.787l-0.317-6.502C1751.067,329.649,1751.173,329.547,1760.114,332.126z M1719.302,323.768
	c1.579,0.31,5.996,1.031,9.783,1.65c11.149,1.857,10.518,1.342,10.518,8.876c0,3.612-0.106,6.604-0.211,6.604
	c-0.21-0.104-5.259-0.929-11.358-1.961l-11.044-1.857l-0.316-6.914l-0.315-7.019L1719.302,323.768z M1683.857,326.76v-6.709
	l9.257,0.62c5.048,0.413,9.991,1.032,11.043,1.238c1.473,0.413,1.788,1.755,1.788,7.328v6.708l-4.942-0.619
	c-2.841-0.311-7.784-0.826-11.045-1.136l-6.101-0.619V326.76z M1648.095,325.831v-6.604h10.938h10.939l0.42,6.811
	c0.106,3.716,0.211,6.813,0.106,6.914c-0.106,0.104-5.155,0.104-11.255-0.102l-11.149-0.311V325.831z M1626.007,319.949
	c11.779-0.62,11.044-1.032,11.359,6.295c0.21,4.541-0.105,6.502-1.051,6.811c-0.737,0.311-5.997,0.723-11.57,1.033l-10.308,0.516
	v-6.605C1614.438,320.361,1614.227,320.567,1626.007,319.949z M1578.676,325.625l7.678-1.238c4.101-0.619,8.309-1.342,9.151-1.445
	c5.994-1.342,6.311-1.032,6.311,6.089v6.604l-3.366,0.619c-7.573,1.238-17.25,2.58-18.406,2.58c-0.947,0-1.367-1.96-1.367-6.604
	V325.625z M1547.331,339.248l0.315-7.122l9.467-2.271c5.259-1.238,9.571-2.27,9.782-2.27c0.104-0.104,0.21,3.096,0.21,6.914v7.121
	l-8.521,1.754c-4.732,1.032-9.255,2.064-10.096,2.374C1547.331,346.266,1547.121,345.026,1547.331,339.248z M1567.106,470.416v6.605
	l-3.892,1.031c-2.209,0.518-6.731,1.652-9.991,2.479l-6.102,1.547v-6.914v-7.018l8.73-2.064
	C1567.948,463.09,1567.106,462.779,1567.106,470.416z M1601.816,465.051v6.605l-9.151,1.236c-5.153,0.723-10.308,1.549-11.675,1.859
	c-2.313,0.516-2.42,0.412-2.104-6.502l0.315-7.121l7.363-1.135c4.101-0.723,9.149-1.238,11.358-1.344l3.893-0.102V465.051z
	 M1637.576,462.16c0,5.676-0.315,6.709-1.787,6.811c-1.052,0-6.312,0.414-11.676,0.725l-9.676,0.721v-6.914v-6.914l6.101-0.412
	c3.261-0.207,8.52-0.414,11.569-0.518l5.469-0.205V462.16z M1670.184,462.16v6.709h-11.044h-11.045v-6.709v-6.707h11.045h11.044
	V462.16z M1705.735,464.844l-0.315,6.605l-10.729-0.93l-10.834-0.824v-6.813v-6.707l10.729,0.723
	c5.89,0.309,10.834,0.824,11.044,1.031C1705.84,458.135,1705.945,461.23,1705.735,464.844z M1734.658,475.68
	c-2.734-0.309-7.993-1.135-11.569-1.754l-6.626-1.135v-6.605c0-6.502,0-6.605,2.945-6.502c1.578,0,6.626,0.826,11.254,1.754
	l8.414,1.754l0.315,6.607l0.315,6.604L1734.658,475.68z M1773.05,485.381c-0.211-0.104-5.048-1.342-10.833-2.992l-10.518-2.891
	l-0.317-6.914l-0.315-6.914l2.945,0.721c1.578,0.414,6.521,1.756,10.835,2.893l7.888,2.268l0.315,6.916
	C1773.26,482.285,1773.26,485.381,1773.05,485.381z M1802.502,496.732c-0.212,0-4.524-1.855-9.783-4.023l-9.466-4.025l-0.315-6.813
	c-0.211-3.715-0.105-6.811,0.105-6.811c0.21,0,4.627,1.756,9.781,4.025l9.36,3.922l0.317,6.914
	C1802.712,493.637,1802.712,496.732,1802.502,496.732z M1803.238,471.965c-1.264,1.031-3.051,0.619-9.677-2.064
	c-24.507-10.01-52.695-16.926-87.09-21.363c-11.78-1.443-22.088-1.857-52.064-1.857c-40.075,0-51.96,0.93-80.254,6.295
	c-7.468,1.445-14.41,2.271-15.567,1.963c-1.893-0.619-1.997-2.064-1.997-49.951c0-46.44,0.104-49.434,1.894-50.98
	c4.311-3.922,45.018-9.908,77.518-11.456c13.147-0.619,47.963,0.517,63.635,2.064c29.661,2.992,61.215,9.597,82.672,17.44
	c13.569,5.057,17.67,7.121,20.3,10.424c2.209,2.684,2.209,3.611,2.209,50.465C1804.815,463.811,1804.604,470.83,1803.238,471.965z"
	/>
<path d="M978,49.25c-6.097,2.302-18.538,8.011-28.531,14.41c-24.506,15.584-44.491,26.729-62.898,35.088
	c-43.44,19.608-87.616,31.477-140.416,37.668c-19.565,2.374-71.208,2.684-89.931,0.516c-61.215-6.811-114.332-24.149-157.666-51.601
	c-27.873-17.647-45.965-26.523-88.457-43.241C352.987,19.799,307.128,8.034,257.799,3.183c-16.198-1.548-52.065-2.683-63.845-1.96
	C137.156,4.628,83.829,15.877,10.939,40.129L0.421,43.638l-0.315,5.263l-0.316,5.263l9.151-2.993
	c5.048-1.754,9.572-3.096,10.098-3.096c0.42,0,0.841,2.993,0.841,6.604v6.605l-9.992,3.302l-9.992,3.303v60.786
	c0,33.438,0.42,60.786,0.841,60.786c0.525,0,4.943-1.341,9.992-2.993l9.15-3.096v7.018v6.914l-9.677,3.097l-9.781,3.096
	l-0.315,5.366c-0.21,2.995,0.104,5.368,0.526,5.368c0.526,0,6.626-1.857,13.463-4.128c84.25-27.967,148.305-39.526,209.837-37.875
	c50.171,1.444,92.979,9.081,144.624,26.007c51.118,16.718,95.188,36.222,126.322,55.935c17.459,11.043,30.713,18.162,45.859,24.459
	c51.329,21.363,100.132,30.857,158.613,30.857c32.08,0,56.692-2.373,88.352-8.566c62.058-12.281,106.653-30.65,164.503-68.01
	c8.1-5.16,19.821-10.813,25.797-13.16c9.763-3.836,22.501-5.583,35.5-5.394V43.331C996.167,44.167,988.943,45.118,978,49.25z
	 M233.396,18.56v-6.604h4.523c2.419,0,7.573,0.31,11.57,0.722l7.047,0.619v6.502v6.604h-4.417c-2.525,0-7.678-0.31-11.57-0.723
	l-7.152-0.619V18.56z M199.739,18.147v-7.224h11.57h11.57v7.224v7.225h-11.57h-11.57V18.147z M163.977,20.831v-6.708l4.523-0.516
	c5.785-0.826,10.939-1.238,15.251-1.445l3.366-0.207v6.708v6.605l-3.366,0.516c-1.893,0.31-7.152,0.826-11.57,1.136l-8.204,0.723
	V20.831z M131.371,25.269v-6.915l9.782-1.548c5.259-0.826,10.308-1.548,11.044-1.651c1.052-0.103,1.263,1.651,1.052,6.812
	l-0.315,7.018l-10.729,1.651l-10.834,1.548V25.269z M96.661,32.183v-6.605l8.204-1.754c4.417-0.929,8.625-1.857,9.15-2.064
	c4.102-1.445,4.733-0.62,4.733,6.089v6.604l-9.572,2.167C95.925,39.613,96.661,39.923,96.661,32.183z M65.107,33.731l4.523-1.135
	c2.418-0.62,6.521-1.858,9.151-2.58c7.467-2.167,7.362-2.271,7.362,5.057c0,5.47-0.315,6.811-1.788,7.224
	c-5.259,1.548-17.776,4.747-18.406,4.747c-0.526,0-0.842-2.993-0.842-6.708V33.731z M31.659,50.656l0.315-6.915l8.94-2.889
	c4.944-1.548,9.571-2.889,10.307-2.993c0.842-0.103,1.263,1.857,1.263,6.604v6.605l-9.151,2.787
	c-5.154,1.548-9.887,2.993-10.623,3.302C31.659,57.468,31.449,56.023,31.659,50.656z M52.485,186.985l-10.518,3.2l-10.519,3.097
	v-6.813v-6.913l10.307-3.2c5.575-1.755,10.308-3.199,10.519-3.303c0.105,0,0.21,3.096,0.21,6.915V186.985z M86.143,177.801
	l-9.15,2.373c-5.154,1.342-9.888,2.58-10.623,2.89c-1.052,0.31-1.263-1.135-1.052-6.604l0.315-7.019l9.992-2.785
	c5.47-1.548,10.097-2.787,10.307-2.892c0.105-0.102,0.21,3.097,0.21,6.916V177.801z M118.749,170.473l-8.625,1.755
	c-4.837,1.032-9.781,2.063-11.043,2.373c-2.314,0.62-2.419,0.413-2.419-6.089v-6.812l4.101-1.135
	c2.21-0.516,7.047-1.65,10.729-2.477c3.682-0.826,6.837-1.445,7.048-1.548c0.105-0.103,0.21,3.096,0.21,6.915V170.473z
	 M153.459,157.986v6.605l-3.366,0.517c-1.893,0.309-6.311,1.031-9.677,1.65c-9.466,1.547-9.045,1.857-9.045-5.676v-6.605l3.471-0.62
	C154.405,150.246,153.459,150.039,153.459,157.986z M187.117,154.787v6.604l-8.625,0.62c-4.838,0.412-10.097,0.929-11.675,1.237
	l-2.945,0.62l0.316-7.122l0.315-7.017l5.785-0.62c3.156-0.31,8.309-0.619,11.36-0.722l5.47-0.207V154.787z M222.879,153.857v6.708
	h-11.57h-11.57v-6.708v-6.708h11.57h11.57V153.857z M256.536,156.128v6.812l-6.417-0.724c-3.575-0.309-8.834-0.618-11.569-0.618
	h-5.154v-7.225v-7.121l7.152,0.516c3.892,0.31,9.045,0.722,11.57,1.032l4.417,0.516V156.128z M257.589,87.602
	c0,36.534-0.315,49.124-1.263,50.053c-0.947,0.929-7.994,1.032-28.609,0.619c-63.424-1.548-115.489,6.915-194.9,31.787
	c-16.829,5.263-20.511,6.088-21.877,4.953c-1.367-1.135-1.578-7.225-1.578-49.64c0-47.37,0-48.402,2.104-50.466
	c2.734-2.684,3.26-2.89,31.344-11.352c50.171-15.274,92.98-24.149,133.265-27.762c5.785-0.516,25.243-0.928,43.229-0.722
	c29.031,0.104,33.028,0.413,35.447,1.96l2.84,1.754V87.602z M985.651,60.667l0.317-6.915l8.94-3.302
	c4.941-1.754,9.359-3.302,9.78-3.302c0.42-0.104,0.738,2.993,0.526,6.708l-0.315,6.812l-9.782,3.508l-9.782,3.406L985.651,60.667z
	 M957.252,75.321l0.315-6.914l8.941-5.057c4.838-2.683,8.94-4.954,9.15-4.954s0.315,2.993,0.315,6.604v6.605l-8.625,4.851
	c-4.838,2.684-9.15,5.16-9.572,5.367C957.358,82.132,957.042,79.14,957.252,75.321z M929.696,86.674l8.204-5.264
	c4.417-2.89,8.414-5.366,8.94-5.366c0.42-0.104,0.736,2.89,0.736,6.501v6.605l-8.415,5.263c-4.732,2.89-8.731,5.264-8.939,5.264
	c-0.317,0-0.526-2.89-0.526-6.502V86.674z M902.558,108.449l0.316-7.018l8.415-4.438c4.627-2.477,8.729-4.541,9.255-4.541
	c0.42,0,0.737,2.89,0.737,6.399v6.501l-9.572,4.953l-9.467,5.058L902.558,108.449z M871.845,122.175v-6.605l8.206-3.715
	c11.568-5.263,11.779-5.263,11.779,2.374v6.192l-7.572,3.406C871.11,129.709,871.845,129.812,871.845,122.175z M841.344,126.819
	l9.781-3.612c5.259-2.064,10.098-3.715,10.519-3.818c0.419-0.104,0.736,2.993,0.525,6.811l-0.314,6.915l-8.94,3.302
	c-4.945,1.858-9.573,3.406-10.204,3.406c-0.946,0.104-1.366-1.857-1.366-6.501V126.819z M807.685,143.022v-6.915l9.782-2.58
	c5.259-1.445,9.992-2.683,10.518-2.786c0.421,0,0.736,2.889,0.736,6.605c0,4.437-0.421,6.915-1.262,7.224
	c-0.736,0.309-5.469,1.651-10.519,2.993l-9.256,2.477V143.022z M742.473,153.961v-6.708l6.101-0.619
	c3.26-0.413,6.521-0.825,7.048-1.032c0.631-0.207,2.838-0.413,5.048-0.413l3.893-0.103v6.604v6.502l-9.257,1.239
	C741.421,161.184,742.473,161.598,742.473,153.961z M708.815,155.922v-6.605l6.626-0.413c3.576-0.207,8.73-0.413,11.57-0.516
	l4.944-0.207v6.604v6.502l-3.892,0.723c-2.21,0.31-7.469,0.619-11.57,0.619h-7.679V155.922z M673.054,155.303v-7.43l3.996,0.722
	c2.104,0.31,7.362,0.619,11.57,0.619h7.574v6.708v6.708h-11.57h-11.57V155.303z M643.813,145.602
	c2.524,0.309,7.572,0.928,11.359,1.341l6.838,0.723l0.314,6.915l0.316,6.915l-5.574-0.62c-3.052-0.31-8.205-0.825-11.36-1.239
	l-5.785-0.619L639.605,152l-0.314-7.018L643.813,145.602z M604.686,145.499c0-3.612,0.209-6.605,0.42-6.605
	c0.211,0,5.049,0.929,10.624,2.064c5.575,1.135,10.413,2.064,10.623,2.064c0.211,0,0.422,2.993,0.422,6.708
	c0,7.74,0.525,7.43-10.729,5.16C603.844,152.413,604.686,153.033,604.686,145.499z M573.973,130.638
	c0.42,0,5.259,1.341,10.729,2.889l9.992,2.89l0.315,5.47c0.526,8.669,0.631,8.566-10.939,5.16
	c-5.575-1.651-10.413-2.993-10.624-2.993c-0.105,0-0.315-2.993-0.315-6.708C573.132,133.63,573.447,130.638,573.973,130.638z
	 M540.841,118.253c0.21,0,4.522,1.652,9.782,3.716c5.154,2.064,9.781,4.024,10.203,4.437c0.42,0.517,0.736,3.612,0.526,7.018
	l-0.315,6.295l-9.992-3.921l-9.993-3.922l-0.315-6.811C540.525,121.349,540.631,118.253,540.841,118.253z M513.178,111.442v-6.604
	l8.415,4.128l8.415,4.127v6.708c0,3.715-0.316,6.708-0.632,6.708c-0.42,0-4.208-1.857-8.415-4.231l-7.783-4.128V111.442z
	 M496.559,94.826l7.048,4.335l0.105,6.915v7.017l-8.625-5.572l-8.729-5.47l-0.316-6.502
	C485.621,88.015,485.41,88.015,496.559,94.826z M458.485,80.584v-6.708l9.465,4.644l9.467,4.644v6.708v6.708l-9.467-4.644
	l-9.465-4.645V80.584z M440.077,65.208l7.889,3.612v5.985c0,3.303-0.316,6.192-0.632,6.502s-4.733-1.342-9.992-3.612l-9.361-4.231
	v-6.605C427.982,59.325,427.245,59.428,440.077,65.208z M398.215,48.076c0.421,0,5.154,1.754,10.518,3.818l9.783,3.715v6.605
	c0,3.612-0.316,6.502-0.736,6.502c-1.367,0-17.565-6.399-18.933-7.534C397.373,60.151,396.847,48.076,398.215,48.076z
	 M364.873,43.123c0-3.509,0.315-6.398,0.735-6.398c0.526,0,5.259,1.445,10.518,3.199l9.783,3.199v6.605
	c0,3.612-0.316,6.604-0.736,6.604c-0.526,0-5.259-1.548-10.518-3.302l-9.782-3.406V43.123z M334.37,33.937
	c0-5.882,0.209-6.708,1.894-6.191c0.946,0.207,5.679,1.548,10.518,2.787l8.625,2.373v7.018v7.018l-2.84-0.929
	c-1.683-0.516-6.416-1.857-10.518-3.096l-7.678-2.167V33.937z M299.661,26.197V19.18l2.839,0.62
	c1.578,0.413,6.521,1.444,10.834,2.373l7.889,1.651l0.316,7.121c0.21,5.47,0,6.915-1.052,6.605
	c-0.736-0.31-5.785-1.445-11.044-2.477l-9.781-1.858V26.197z M267.055,21.037V14.02l2.944,0.516c1.578,0.31,5.89,1.032,9.677,1.548
	s7.152,1.032,7.678,1.032c0.42,0,0.736,2.993,0.736,6.708c0,4.334-0.421,6.708-1.158,6.708c-0.736,0-5.47-0.516-10.518-1.239
	l-9.36-1.239V21.037z M288.091,160.154v6.811l-3.366-0.62c-1.893-0.309-5.575-0.824-8.204-1.134
	c-9.992-1.342-9.466-0.826-9.466-8.257c0-4.437,0.42-6.708,1.262-6.708c0.63,0,4.312,0.516,8.098,1.135
	C289.143,153.342,288.091,152.517,288.091,160.154z M311.546,171.402c-3.892-0.929-8.204-1.857-9.466-2.064
	c-2.21-0.516-2.419-1.134-2.419-7.326c0-6.502,0.104-6.812,2.419-6.296c1.262,0.31,6.205,1.341,11.043,2.374l8.625,1.754v6.501
	C321.749,173.879,322.169,173.672,311.546,171.402z M355.406,175.53c0,3.715-0.316,6.708-0.736,6.708
	c-0.526,0-5.259-1.341-10.729-2.889l-9.782-2.787v-6.501c0.104-3.51,0.104-6.605,0.104-6.813c0.106-0.309,1.368-0.103,3.051,0.414
	c1.578,0.516,6.311,1.857,10.518,3.096l7.573,2.166V175.53z M385.698,192.558c-0.21,0-4.838-1.548-10.307-3.509l-9.992-3.508
	l-0.316-6.813c-0.209-3.715-0.209-6.812,0-6.812c0.21,0,4.839,1.548,10.309,3.511l9.992,3.508l0.315,6.812
	C385.909,189.462,385.909,192.558,385.698,192.558z M418.515,198.337c0,3.612-0.106,6.605-0.316,6.605
	c-0.209,0-4.838-1.755-10.308-3.921l-9.886-3.923l-0.317-6.397c-0.209-5.058,0-6.399,1.263-6.399c0.736,0,5.574,1.651,10.518,3.715
	l9.046,3.716V198.337z M447.966,211.135c0,3.404-0.421,6.191-0.947,6.191s-5.048-1.857-9.992-4.127l-9.045-4.025v-6.709v-6.708
	l3.997,1.652c2.104,0.825,6.626,2.889,9.992,4.54l5.996,2.993V211.135z M477.417,225.273c0,3.611-0.21,6.502-0.526,6.502
	c-0.316,0-4.523-1.961-9.466-4.336l-8.94-4.334v-6.502c0-3.611,0.209-6.5,0.526-6.5c0.315,0,4.522,1.961,9.466,4.334l8.94,4.334
	V225.273z M503.712,241.785c0,3.613-0.21,6.502-0.421,6.502c-0.315,0-4.312-2.373-8.94-5.262l-8.519-5.367v-6.605
	c0-3.715,0.419-6.502,0.841-6.295c0.42,0.102,4.522,2.58,8.94,5.367l8.099,5.055V241.785z M504.763,174.705
	c0,43.241-0.21,49.846-1.578,49.846c-0.842,0-6.521-3.199-12.621-7.225c-20.511-13.208-40.495-22.704-82.358-39.113
	c-39.021-15.273-71.313-24.872-106.442-31.683c-11.254-2.167-21.563-4.541-22.825-5.366l-2.419-1.445V90.492
	c0-27.142,0.315-49.64,0.841-50.053c1.157-1.239,11.57,0,27.032,2.992c40.283,8.05,84.985,22.602,135.683,44.377
	c24.823,10.527,52.695,26.11,61.846,34.366l2.84,2.684V174.705z M530.008,255.82v7.018l-8.415-4.334l-8.415-4.23v-6.604
	c0-3.613,0.21-6.605,0.526-6.605c0.209,0,3.997,1.754,8.415,3.818l7.889,3.818V255.82z M561.562,268.619
	c0,3.611-0.316,6.5-0.736,6.5c-1.368,0-17.565-6.398-18.933-7.533c-1.473-1.031-1.999-13.107-0.631-13.107
	c0.421,0,5.154,1.756,10.518,3.82l9.783,3.715V268.619z M582.598,282.447l-8.94-2.787l-0.316-6.811l-0.315-6.811l10.098,2.889
	c5.575,1.65,10.519,3.303,11.044,3.611c0.631,0.311,1.052,3.406,1.052,6.813C595.219,286.574,595.535,286.473,582.598,282.447z
	 M626.457,292.664c-0.314,0-5.152-0.93-10.727-2.064c-5.575-1.135-10.413-2.063-10.624-2.063c-0.21,0-0.42-2.994-0.42-6.709
	c0-7.74-0.842-7.432,12.622-4.748l8.94,1.754l0.315,6.916C626.775,289.568,626.668,292.664,626.457,292.664z M662.535,290.393v6.709
	l-8.414-0.723c-15.356-1.238-14.727-0.826-14.727-8.668v-6.707l5.049,0.617c2.734,0.414,7.889,0.93,11.57,1.342l6.521,0.723V290.393
	z M696.195,292.252v6.605h-5.997c-3.365,0-8.624-0.311-11.57-0.619l-5.573-0.725v-6.5v-6.605h6.73c3.682,0,8.836,0.309,11.57,0.619
	l4.84,0.723V292.252z M731.955,291.117v6.707h-3.472c-1.998,0-7.152,0.309-11.57,0.619l-8.099,0.723v-6.813
	c0-4.436,0.421-6.914,1.367-7.223c0.631-0.311,5.891-0.619,11.57-0.619l10.203-0.104V291.117z M764.351,287.193l-0.315,7.02
	l-4.732,0.619c-2.63,0.309-7.47,0.928-10.729,1.342l-6.101,0.619v-6.709c0-3.715,0.104-6.707,0.314-6.811
	c0.317-0.104,18.827-2.684,20.512-2.891C764.351,280.279,764.562,282.035,764.351,287.193z M764.562,269.443
	c-2.63,2.271-16.936,4.129-44.177,5.676c-42.704,2.479-91.824-2.787-131.793-14.035c-27.452-7.637-60.163-20.846-65.106-26.213
	l-2.945-3.096v-48.298c0-26.626,0.315-48.711,0.736-49.124c1.262-1.135,3.892-0.31,19.249,6.398
	c36.813,15.893,75.73,25.593,119.906,29.722c19.248,1.858,71.629,1.444,86.249-0.619c11.57-1.549,17.986-1.549,19.038,0.103
	c0.525,0.827,0.947,23.118,0.947,49.538C766.665,265.934,766.559,267.689,764.562,269.443z M775.08,149.73
	c0-6.089,0.209-6.708,2.418-7.224s16.092-3.2,17.881-3.509c0.42,0,0.736,2.993,0.526,6.812l-0.316,6.914l-8.94,1.858
	C774.237,157.057,775.08,157.367,775.08,149.73z M796.115,281.725v6.709l-5.995,1.135c-3.366,0.723-7.89,1.549-10.099,2.064
	c-4.838,1.031-5.152,0.412-4.732-7.328l0.316-5.572l8.413-1.652C796.956,274.396,796.115,274.088,796.115,281.725z M826.933,280.693
	c-5.259,1.547-17.776,4.746-18.406,4.746c-0.525,0-0.842-2.992-0.842-6.707v-6.605l4.523-1.135c2.419-0.619,6.521-1.857,9.151-2.58
	c7.467-2.168,7.361-2.271,7.361,5.057C828.721,278.939,828.406,280.279,826.933,280.693z M860.592,269.443
	c-1.053,0.414-4.945,1.756-8.73,3.096c-3.787,1.342-7.68,2.684-8.731,3.098c-1.682,0.723-1.893,0.207-1.577-6.193l0.316-7.018
	l9.467-3.406c5.26-1.857,9.781-3.406,10.308-3.406c0.419-0.102,0.736,2.891,0.736,6.504
	C862.38,267.379,862.063,268.824,860.592,269.443z M891.83,256.234l-8.625,3.922c-4.839,2.063-9.361,4.023-10.098,4.334
	c-1.053,0.412-1.263-1.031-1.053-6.398l0.317-7.018l8.939-3.922c4.943-2.168,9.257-3.922,9.782-3.922
	c0.42-0.104,0.736,2.891,0.736,6.502V256.234z M920.964,240.445c-0.42,1.031-16.407,9.906-17.985,9.906
	c-0.315,0-0.631-2.889-0.631-6.502v-6.398l9.257-4.852l9.15-4.85l0.315,5.779C921.281,236.729,921.175,239.824,920.964,240.445z
	 M947.366,218.564l-0.316,6.502l-6.837,4.438c-11.465,7.432-10.518,7.432-10.518-0.207v-6.707l8.204-5.16
	c4.417-2.891,8.519-5.263,8.94-5.263C947.26,212.167,947.576,215.057,947.366,218.564z M975.975,207.832l-8.939,4.749
	c-4.943,2.58-9.151,4.746-9.468,4.746c-0.315,0-0.525-2.889-0.315-6.5l0.315-6.399l8.415-4.851c4.628-2.786,8.73-4.953,9.256-4.953
	c0.421,0,0.736,2.993,0.736,6.605V207.832z M1005.427,196.274l-9.993,3.716l-9.992,3.612v-6.916v-6.914l8.729-3.199
	c4.733-1.755,9.256-3.199,9.992-3.199c0.841-0.104,1.264,1.857,1.264,6.398V196.274z M1005.109,175.711
	c-1.366,1.238-7.361,0.129-13.462,2.502c-14.305,5.366-24.928,11.146-46.175,24.665c-30.292,19.401-53.011,31.167-80.147,41.694
	c-29.977,11.559-73.627,23.531-78.359,21.361l-2.419-1.135v-48.504c0-46.958,0.104-48.607,2.103-50.569
	c1.157-1.135,3.365-2.271,4.943-2.683c64.266-14.655,105.182-31.89,160.086-67.288c14.937-9.701,26.071-14.657,39.323-19.714
	c10.203-3.921,13.373-1.88,15.267-0.022c0.945,0.929,1.262,9.313,1.262,45.33v52.195L1005.109,175.711z"/>
</svg>
